<svg id="Слой_1_копия_" data-name="Слой 1 (копия)" xmlns="http://www.w3.org/2000/svg" viewBox="0 0 64 64"><defs><style>.cls-1{fill:#351f6c;}.cls-2{fill:#fff;}</style></defs><g id="Сгруппировать_85" data-name="Сгруппировать 85"><circle id="Эллипс_13" data-name="Эллипс 13" class="cls-1" cx="31.92" cy="32.08" r="31.92"/></g><path class="cls-2" d="M38.3,47.36c0-.07,0-.07-.07-.14a1,1,0,0,1-.07-.48,1,1,0,0,1,.07-.49c0-.07,0-.07.07-.14s.07-.2.14-.34V45.7H22.72v.07c.06.14.06.2.13.34s0,.07.07.14v.49a1,1,0,0,1-.07.48v.14c0,.14-.07.21-.13.35v.07H38.44v-.07C38.37,47.57,38.37,47.5,38.3,47.36Z"/><path class="cls-2" d="M40.52,45.7h-.21a.36.36,0,0,0-.28.14H40l-.21.2v.07a.36.36,0,0,0-.13.28v.07a3,3,0,0,0-.07.35c0,.13.07.13.07.27s.06.21.13.28v.07l.21.21H40c.07.07.21.07.28.14h.21a1,1,0,0,0,0-2.08Z"/><path class="cls-2" d="M21.47,46.39v-.07c-.07-.07-.07-.21-.14-.28V46l-.21-.2h-.07a.6.6,0,0,1-.34-.07H20.5a1,1,0,0,0,0,2.08h.21a.34.34,0,0,0,.27-.14h.07l.21-.21v-.07a.36.36,0,0,0,.14-.28V47c.14-.07.14-.14.14-.27A.63.63,0,0,0,21.47,46.39Z"/><path class="cls-2" d="M45.09,29.84v-.77h.69a.69.69,0,0,0,0-1.38h-.69V15.15a2.81,2.81,0,0,0,2.21-2.7,2.78,2.78,0,0,0-2.77-2.77,2.84,2.84,0,0,0-2.77,2.49L27.36,27.69h-.28A2,2,0,0,0,25,29.77v4.85H22.23V36a2.78,2.78,0,0,1-2.77,2.77H15.3v2.08a.66.66,0,0,0,.7.69H26.39v.69H19.81a4.51,4.51,0,1,0,0,9H41.28a4.51,4.51,0,0,0,0-9H34.7v-.69h2.08a.66.66,0,0,0,.69-.69V39l-6.65-2.36a3.51,3.51,0,0,1-2.36-3.32V29.07h1.39v4.3a2.18,2.18,0,0,0,1.38,2l6.24,2.14V32.68a5.83,5.83,0,0,0-.35-1.87A5,5,0,0,0,35,28.31l8.73-11.7V27.69H43a.69.69,0,1,0,0,1.38h.69v1.39a.6.6,0,0,0,.21.48.63.63,0,0,0,.48.21A1.39,1.39,0,1,1,43,32.54a.7.7,0,1,0-1.39,0,2.78,2.78,0,0,0,5.55,0A2.82,2.82,0,0,0,45.09,29.84ZM40.24,44.31h.35a2.43,2.43,0,0,1,0,4.85H20.5a2.43,2.43,0,1,1,0-4.85H40.24Zm-6.93-2.77v.69H27.77v-.69Zm.28-13.71h-.14c-.14,0-.21-.07-.35-.07s-.41-.07-.62-.07H29.23l1.31-1.39,4.64-.62Zm-1.52-3.12,3.74-4,.2,3.47Zm5.26-1.8-.21-3.26L40,19.31Zm.83-4.78,2.43-2.63.2,2.28ZM42,16.54l-.21-2.36.35-.34a.07.07,0,0,0,.07.07c.07.06.07.13.14.2l.07.07a2.49,2.49,0,0,0,.83.69Z"/><path class="cls-2" d="M18.14,34.62a2.88,2.88,0,0,0-2.84,2.77h4.16A1.4,1.4,0,0,0,20.85,36V34.62Z"/></svg>