<svg xmlns="http://www.w3.org/2000/svg" width="57.581" height="75.594" viewBox="0 0 57.581 75.594"><defs><style>.a{fill:#fff;}</style></defs><path class="a" d="M117.932,18.366,100.215.649A2.218,2.218,0,0,0,98.649,0H67.644A6.652,6.652,0,0,0,61,6.644V68.95a6.652,6.652,0,0,0,6.644,6.644h44.293a6.652,6.652,0,0,0,6.644-6.644V19.932A2.235,2.235,0,0,0,117.932,18.366Zm-17.068-10.8L111.02,17.717h-7.941a2.217,2.217,0,0,1-2.215-2.215Zm11.073,63.6H67.644a2.217,2.217,0,0,1-2.215-2.215V6.644a2.217,2.217,0,0,1,2.215-2.215H96.435V15.5a6.652,6.652,0,0,0,6.644,6.644h11.073v46.8A2.217,2.217,0,0,1,111.937,71.164Z" transform="translate(-61 0)"/><path class="a" d="M179.791,212H153.215a2.215,2.215,0,0,0,0,4.429h26.576a2.215,2.215,0,0,0,0-4.429Z" transform="translate(-137.712 -180.699)"/><path class="a" d="M179.791,272H153.215a2.215,2.215,0,0,0,0,4.429h26.576a2.215,2.215,0,0,0,0-4.429Z" transform="translate(-137.712 -231.841)"/><path class="a" d="M179.791,332H153.215a2.215,2.215,0,0,0,0,4.429h26.576a2.215,2.215,0,1,0,0-4.429Z" transform="translate(-137.712 -282.982)"/><path class="a" d="M170.932,392H153.215a2.215,2.215,0,1,0,0,4.429h17.717a2.215,2.215,0,1,0,0-4.429Z" transform="translate(-137.712 -334.124)"/></svg>