<svg xmlns="http://www.w3.org/2000/svg" width="45.145" height="48.557" viewBox="0 0 45.145 48.557"><defs><style>.a{fill:#fff;}</style></defs><g transform="translate(-193.487 -10.796)"><path class="a" d="M221.577,21.861l-3.9-10.32a.84.84,0,0,0-1.085-.49l-4.716,1.78L209.809,7.34a.843.843,0,0,0-1.085-.49L181.2,17.238a.843.843,0,0,0-.489,1.085l2.072,5.49L178.859,25.3l-.742-1.965a.842.842,0,0,0-1.575.595l2.338,6.193a.841.841,0,0,0,1.574-.6l-1-2.653,3.928-1.482,2.041,5.4a.84.84,0,0,0,1.085.49L214.026,20.9a.843.843,0,0,0,.489-1.085l-2.039-5.4,3.929-1.483,3.365,8.918-16.9,11.712a.842.842,0,0,0-.308.99l1.78,4.716L202.373,40a.845.845,0,0,0-.507,1.036l2.249,7.31c.968,3.148,1.191,3.871,1.229,3.993l0,.011a4.639,4.639,0,0,0,2.37,2.561,4.411,4.411,0,0,0,6-2.264,4.627,4.627,0,0,0,.087-3.486l0-.011c-.052-.118-.38-.847-2-4.446l-2.857-6.34a.841.841,0,0,0-1.064-.442l-1.965.741-1.548-4.1,16.906-11.713A.84.84,0,0,0,221.577,21.861Zm-8.934-2.244L186.7,29.41l-4.113-10.895,25.945-9.793Zm-4.912,20.159L212.246,49.8a2.93,2.93,0,0,1-1.635,3.7,2.649,2.649,0,0,1-.936.169,2.981,2.981,0,0,1-2.733-1.862L203.707,41.3Z" transform="translate(17 4)"/></g></svg>