<svg xmlns="http://www.w3.org/2000/svg" viewBox="0 0 600 200"><defs><style>.cls-1{fill:#c90f45;}.cls-2{fill:#333;}</style></defs><g id="Слой_2" data-name="Слой 2"><path class="cls-1" d="M80.44,150.54l-.64.49a1.77,1.77,0,0,0-.41.67q-.83,2.13-1,11.77c.9.2,1.35.51,1.35.91a1.64,1.64,0,0,1-.33.86l-1.09.45a44.51,44.51,0,0,0,.37,4.83c0,.13.15.51.38,1.13a4,4,0,0,1,.26,1,1.47,1.47,0,0,1-.34.9,1,1,0,0,1-.78.45c-.68,0-1.14-.5-1.39-1.5,0-.13-.13-.92-.3-2.38s-.26-2.41-.26-2.83a6.56,6.56,0,0,1,.11-1.28,33.24,33.24,0,0,0-5.49.64c-1.81.35-3.61.71-5.42,1.08l-.68.67c0,1,0,1.91,0,2.88a5.17,5.17,0,0,0,.75,2.84c-.1.32-.26.48-.47.48a2.2,2.2,0,0,0-.75.17,2.11,2.11,0,0,1-.66.17c-.47,0-.77-.93-.9-2.78-.05-1.17-.08-2.33-.11-3.49l-.26-.37h-.15a1.52,1.52,0,0,1-.9-.28.84.84,0,0,1-.41-.73,1.89,1.89,0,0,1,.33-.85c.23-.36.45-.54.68-.54h.41l.19,0c0-1.09,0-3.28,0-6.57q0-6.53.9-8.88a1.4,1.4,0,0,1,1.35-1,2,2,0,0,1,1.16.39,1.2,1.2,0,0,1,.56,1,3.47,3.47,0,0,1-.34,1c-.26.63-.4,1-.42,1.09a42.23,42.23,0,0,0-1,10.87c0,1.13.22,1.69.64,1.69.13,0,.79-.12,2-.38a37,37,0,0,1,5.41-.74,5.32,5.32,0,0,0,1.15-.21,6.3,6.3,0,0,1,1.58-.21c.51,0,.76-.35.73-1.05l-.07-3.3a45.29,45.29,0,0,1,.3-6.37c.37-3.35,1-5,2-5a1.69,1.69,0,0,1,1.35.79A2.94,2.94,0,0,1,80.44,150.54Z"/><path class="cls-1" d="M93.08,170.52q0,1.65-2.22,3a7.28,7.28,0,0,1-3.75,1.2q-5,0-5-6.38a20.41,20.41,0,0,1,1-6q1.35-4.19,3.45-4.19a6.34,6.34,0,0,1,3.94,1.81c1.42,1.22,2.14,2.42,2.14,3.62a5.34,5.34,0,0,1-1.88,4.05,6.1,6.1,0,0,1-4.24,1.73,3,3,0,0,1-1-.38,2.8,2.8,0,0,0-1-.37q-.48,0-.48.3,0,4.31,2.85,4.31a4.24,4.24,0,0,0,2.7-1,8.69,8.69,0,0,0,1.65-1.76c.47-.62.78-.94.93-.94C92.79,169.47,93.08,169.83,93.08,170.52Zm-2.59-6.9a4.38,4.38,0,0,0-.75-2.45,2.29,2.29,0,0,0-2-1.15,2.8,2.8,0,0,0-2.44,1.88,7.27,7.27,0,0,0-.78,3.26,2.55,2.55,0,0,0,.69,1.82,2.34,2.34,0,0,0,1.78.73,3.07,3.07,0,0,0,2.55-1.31A4.37,4.37,0,0,0,90.49,163.62Z"/><path class="cls-1" d="M116.18,169.1a5.4,5.4,0,0,1-.66,2.68,6.51,6.51,0,0,1-1.69,2,7.92,7.92,0,0,1-4.78,1.67,9.5,9.5,0,0,1-3-.45,7,7,0,0,1-2.53-1.5,2.62,2.62,0,0,1-1.09-1.8,1,1,0,0,1,.26-.7,1,1,0,0,1,.72-.28,1.12,1.12,0,0,1,1.08.64,7.77,7.77,0,0,0,1.39,2,3.16,3.16,0,0,0,2.36.81,6.82,6.82,0,0,0,2.35-.39,5.51,5.51,0,0,0,1.8-1.07,4.8,4.8,0,0,0,1.14-1.58,4.46,4.46,0,0,0,.41-1.91,5,5,0,0,0-.15-1.33,1.64,1.64,0,0,0-.54-.86,2.27,2.27,0,0,0-1.11-.45,10.33,10.33,0,0,0-1.87-.14,3.71,3.71,0,0,0-.66.19l-1.23.42-1.37.41a4.36,4.36,0,0,1-1,.18,1.88,1.88,0,0,1-.93-.22.67.67,0,0,1-.42-.6,1.5,1.5,0,0,1,.53-1,3.09,3.09,0,0,1,2-.64,10.18,10.18,0,0,0,2.17-.26,5.29,5.29,0,0,0,1.11-.51,6.46,6.46,0,0,0,1.18-.88,4.84,4.84,0,0,0,.94-1.18,2.8,2.8,0,0,0,.37-1.41,2,2,0,0,0-.31-1.16,1.48,1.48,0,0,0-1.26-.45,6.2,6.2,0,0,0-1.59.21,8.68,8.68,0,0,0-1.49.5,8.8,8.8,0,0,0-1.16.62,2.56,2.56,0,0,0-.67.58.43.43,0,0,1,.15.3.9.9,0,0,1-.27.6,2.67,2.67,0,0,1-.62.53,2.86,2.86,0,0,1-.75.35,2,2,0,0,1-.61.13,1.16,1.16,0,0,1-.72-.22.88.88,0,0,1-.3-.75,2.16,2.16,0,0,1,.81-1.35,11.54,11.54,0,0,1,2-1.5,15.76,15.76,0,0,1,2.47-1.22,6.5,6.5,0,0,1,2.29-.51,4.23,4.23,0,0,1,1.48.29,5.69,5.69,0,0,1,1.39.71,4.14,4.14,0,0,1,1,1,1.92,1.92,0,0,1,.4,1.13,2.75,2.75,0,0,1-.27,1.09,7.07,7.07,0,0,1-.67,1.18,10.73,10.73,0,0,1-.94,1.12,7.86,7.86,0,0,1-1,.92,4.81,4.81,0,0,1,3,1.39A3.83,3.83,0,0,1,116.18,169.1Z"/><path class="cls-1" d="M129.6,175.33c0,.34-.27.52-.82.52a1,1,0,0,1-1.09-.75,11.17,11.17,0,0,1,0-1.46,1.43,1.43,0,0,0-.11-.6,7.56,7.56,0,0,1-4.54,1.54,6.35,6.35,0,0,1-3.26-.94,3.05,3.05,0,0,1-1.8-2.63c0-1,.71-2,2.14-3a6.46,6.46,0,0,1,3.6-1.35h3.71a1.09,1.09,0,0,0,.22-.78,12.93,12.93,0,0,0-.41-3.79,2.65,2.65,0,0,0-2.66-2.14,3.3,3.3,0,0,0-2.63,1.8,5.79,5.79,0,0,0-1.08,3.15v.41a.27.27,0,0,1-.3.3,1.26,1.26,0,0,1-.83-.45,1.23,1.23,0,0,1-.45-.78,7.33,7.33,0,0,1,.64-2.65,8,8,0,0,1,1.39-2.42,3,3,0,0,1,2.32-1,6.42,6.42,0,0,1,3.94,1.35,4.45,4.45,0,0,1,2,3.52Zm-2-6c0-1-.77-1.5-2.32-1.5a7.76,7.76,0,0,0-3.23.64A2.65,2.65,0,0,0,120.3,171a1.75,1.75,0,0,0,.94,1.58,3.43,3.43,0,0,0,1.87.49,5.1,5.1,0,0,0,3.06-1A3.15,3.15,0,0,0,127.61,169.36Z"/><path class="cls-1" d="M133.05,153.16a3.22,3.22,0,0,1,.92-2.4,6,6,0,0,1,2.31-1.38,12.1,12.1,0,0,1,2.94-.64c1-.1,2-.15,2.87-.15a1.38,1.38,0,0,1,1,.26,1,1,0,0,1,.25.68,1,1,0,0,1-.3.84,1.44,1.44,0,0,1-.83.21,3.08,3.08,0,0,1-.51,0l-.31-.1-.34-.09a3.37,3.37,0,0,0-.53,0l-1.2.06a10.32,10.32,0,0,0-1.85.3,4.62,4.62,0,0,0-1.69.79A1.77,1.77,0,0,0,135,153a3.56,3.56,0,0,0,1,2.27,16.82,16.82,0,0,0,3,2.61,13.33,13.33,0,0,1,1.67,1.42,8.71,8.71,0,0,1,1.35,1.86,10.1,10.1,0,0,1,.9,2.51,16.17,16.17,0,0,1,.32,3.4,13.17,13.17,0,0,1-.4,3.26,8.49,8.49,0,0,1-1.16,2.68,6.13,6.13,0,0,1-1.84,1.82,4.43,4.43,0,0,1-2.42.67,5.67,5.67,0,0,1-4.44-1.8c-1.09-1.2-1.63-3.08-1.63-5.66a14.27,14.27,0,0,1,.69-4.84,11.92,11.92,0,0,1,1.52-3,6.93,6.93,0,0,1,1.52-1.57q.69-.47.69-.66c0-.2-.15-.42-.45-.65a9.51,9.51,0,0,1-1.16-1.22,5.57,5.57,0,0,1-.88-1.48A4.06,4.06,0,0,1,133.05,153.16ZM133.5,168a8.3,8.3,0,0,0,1,4.43,3,3,0,0,0,2.64,1.5,3,3,0,0,0,1.71-.51,4.53,4.53,0,0,0,1.33-1.44,8.29,8.29,0,0,0,.88-2.2,11.38,11.38,0,0,0,.32-2.79,14.18,14.18,0,0,0-.25-2.85,9.31,9.31,0,0,0-.67-2.16,6.37,6.37,0,0,0-1-1.57,6.93,6.93,0,0,0-1.28-1.11,1.79,1.79,0,0,0-.78-.34c-.18,0-.48.23-.9.68a8.56,8.56,0,0,0-1.28,1.89,17,17,0,0,0-1.14,2.87A12.14,12.14,0,0,0,133.5,168Z"/><path class="cls-1" d="M157.28,159.54c-.21,1.1-.41,2.2-.59,3.3a17.17,17.17,0,0,0-.35,3.3v11.74a5.34,5.34,0,0,1-1.52,4,5.57,5.57,0,0,1-4.07,1.48,7.93,7.93,0,0,1-3.11-.75,5.55,5.55,0,0,1-2.74-2.06,1.46,1.46,0,0,1-.19-.68,1,1,0,0,1,1-1.09,1,1,0,0,1,.49.15c.43.46.85.89,1.28,1.32a4.61,4.61,0,0,0,3.22,1.16,3.29,3.29,0,0,0,3.3-1.73,10.63,10.63,0,0,0,.49-3.93,14.27,14.27,0,0,0-.15-1.5,6.39,6.39,0,0,1-.08-1.65,11.13,11.13,0,0,1-1.5,1.24,3.37,3.37,0,0,1-1.8.52,4.33,4.33,0,0,1-3.86-2A7.73,7.73,0,0,1,146,168q0-5.06.15-8.55a1.2,1.2,0,0,1,1.31-1.2c1,0,1.38.17,1.28.49q-.72,1.95-.72,8.74,0,5.25,3,5.25c1.21,0,2.18-.94,2.91-2.81a12,12,0,0,0,.78-4.39v-4.28c0-.42.05-1,.09-1.61s.45-1,1.22-.9S157.33,159.06,157.28,159.54Z"/><path class="cls-1" d="M158.4,174.31a1.2,1.2,0,0,1,.28-.84,2.81,2.81,0,0,1,1.63-.43,5.17,5.17,0,0,0,.83-1.52,19.22,19.22,0,0,0,.67-2.23c.2-.83.38-1.69.55-2.59s.3-1.78.41-2.62.21-1.64.28-2.37.12-1.31.15-1.76a2.24,2.24,0,0,1,.64-1.71,1.92,1.92,0,0,1,1.16-.43h1.11c.56,0,1.18,0,1.87,0l2,.07,1.55.08c.48.05.78.21.9.47a1.5,1.5,0,0,1,.19.62l-.15.37a2.61,2.61,0,0,1-.17.28.7.7,0,0,1-.21.21c-.14,1.27-.26,2.52-.35,3.76s-.13,2.56-.13,4c0,.83,0,1.64.08,2.44a23,23,0,0,0,.29,2.36c.78,0,1.25.09,1.39.28a1.52,1.52,0,0,1,.22.95c0,.9,0,1.64-.05,2.23a9,9,0,0,1-.17,1.38,1.27,1.27,0,0,1-.34.71.78.78,0,0,1-.56.21,1.87,1.87,0,0,1-.58-.15c-.26-.1-.39-.25-.39-.44a3.38,3.38,0,0,1,0-.34c0-.2.06-.45.11-.76s.07-.64.1-1,.05-.73.05-1.1a1.53,1.53,0,0,0-.49-.07h-.56l-2.22,0-3.07.1c-1.08,0-2.1.09-3.06.17s-1.67.15-2.12.22a6.68,6.68,0,0,0,.13,1.09c.09.45.17.89.25,1.31a.82.82,0,0,1-.43.41,3,3,0,0,1-.51.23,2.29,2.29,0,0,1-.43,0,1.2,1.2,0,0,1-.54-.26,6.71,6.71,0,0,1-.14-.79c0-.3-.07-.6-.11-.92s-.07-.61-.09-.9A6.92,6.92,0,0,1,158.4,174.31Zm4-1.54,1.85-.07,2.08-.07,2-.06,1.72,0a21,21,0,0,1-.33-2.83c-.06-.95-.08-1.94-.08-3,0-1.22,0-2.37.06-3.44s.08-2.23.13-3.5a27.4,27.4,0,0,0-3.62.17c-.74.11-1.12.28-1.14.5-.08.87-.19,1.87-.34,3s-.34,2.26-.56,3.42-.49,2.25-.79,3.3A13.46,13.46,0,0,1,162.38,172.77Z"/><path class="cls-1" d="M178.12,159.84c-.17.92-.36,1.85-.56,2.79a14.27,14.27,0,0,0-.3,3q0,.27.3.27l.7,0c.28,0,.69,0,1.21,0a14,14,0,0,1,2.91.26,9,9,0,0,1,2.57,1,5.79,5.79,0,0,1,1.63,1.22,2.51,2.51,0,0,1,.43,1.59,3.18,3.18,0,0,1-.6,1.92,5.09,5.09,0,0,1-1.53,1.38,7.73,7.73,0,0,1-2,.85,8.32,8.32,0,0,1-2.1.28c-.37,0-.88,0-1.52-.09a16.49,16.49,0,0,1-1.82-.29s-.08.05-.09.14a.77.77,0,0,1-.11.28,1.18,1.18,0,0,1-.27.28.86.86,0,0,1-.54.13.59.59,0,0,1-.51-.24,2.14,2.14,0,0,1-.26-.55,3.47,3.47,0,0,1-.13-.54c0-.16-.08-.26-.15-.28-.45-.18-.68-.42-.68-.72a.49.49,0,0,1,.21-.48,1.27,1.27,0,0,1,.51-.15v-2.91a11.65,11.65,0,0,1,.07-1.29.52.52,0,0,0-.26-.49.48.48,0,0,1-.26-.45.65.65,0,0,1,.22-.53.56.56,0,0,0,.23-.45c.12-1.52.24-2.91.35-4.16s.25-2.29.4-3.11c.07-.55.47-.83,1.2-.83a1.14,1.14,0,0,1,.82.29.94.94,0,0,1,.3.73A2.69,2.69,0,0,1,178.12,159.84Zm7.09,9.9a1.7,1.7,0,0,0-.3-.92,2.54,2.54,0,0,0-1-.83,7.41,7.41,0,0,0-1.84-.58,15,15,0,0,0-2.83-.22c-.4,0-.76,0-1.07,0s-.57,0-.77,0-.14.1-.19.28a3.1,3.1,0,0,0-.09.66c0,.25,0,.51,0,.77s0,.48,0,.65c0,.9,0,1.82.12,2.74a5.13,5.13,0,0,0,1.59.47,12.31,12.31,0,0,0,1.93.17,5.3,5.3,0,0,0,1.6-.26,5.68,5.68,0,0,0,1.46-.72,3.62,3.62,0,0,0,1-1.05A2.21,2.21,0,0,0,185.21,169.74Z"/><path class="cls-1" d="M200,159.84a4.36,4.36,0,0,1-1.42.37c-.2,0-.48,0-.84.08l-1.09.07-1,.06a1.59,1.59,0,0,0-.45.05c0,.13-.06.64-.11,1.52s-.08,2.41-.08,4.56c0,1.07,0,2,.08,2.68s.1,1.36.15,1.93a3.26,3.26,0,0,0,.06.53c0,.22.08.48.13.78s.09.57.13.79a3.45,3.45,0,0,1,0,.6.8.8,0,0,1-.37.6,1.14,1.14,0,0,1-.68.3c-.5,0-.9-.51-1.2-1.54a15.15,15.15,0,0,1-.28-2.17c-.08-1.07-.13-2.52-.13-4.35s0-3.13.08-4.07.08-1.58.11-1.93a1.85,1.85,0,0,0-.62,0l-1.26.09-1.42.13-1.09.12c-.8.12-1.2-.16-1.2-.87,0-.15.24-.31.71-.48a14.13,14.13,0,0,1,1.75-.51c.69-.16,1.43-.31,2.23-.45s1.52-.24,2.17-.32l1.07-.09,1.3-.1,1.37-.07,1.25-.07c.7,0,1,.27,1,.82A1.08,1.08,0,0,1,200,159.84Z"/><path class="cls-1" d="M212.44,170.52q0,1.65-2.22,3a7.28,7.28,0,0,1-3.75,1.2q-5,0-5-6.38a20.41,20.41,0,0,1,1-6q1.35-4.19,3.45-4.19a6.34,6.34,0,0,1,3.94,1.81c1.42,1.22,2.14,2.42,2.14,3.62a5.34,5.34,0,0,1-1.88,4.05,6.1,6.1,0,0,1-4.24,1.73,3,3,0,0,1-1-.38,2.8,2.8,0,0,0-1-.37q-.48,0-.48.3,0,4.31,2.85,4.31a4.24,4.24,0,0,0,2.7-1,8.69,8.69,0,0,0,1.65-1.76c.47-.62.78-.94.93-.94C212.15,169.47,212.44,169.83,212.44,170.52Zm-2.59-6.9a4.38,4.38,0,0,0-.75-2.45,2.29,2.29,0,0,0-2-1.15,2.8,2.8,0,0,0-2.44,1.88,7.27,7.27,0,0,0-.78,3.26,2.55,2.55,0,0,0,.69,1.82,2.34,2.34,0,0,0,1.78.73,3.07,3.07,0,0,0,2.55-1.31A4.37,4.37,0,0,0,209.85,163.62Z"/><path class="cls-1" d="M234,160a2.52,2.52,0,0,0-.41.45,2.48,2.48,0,0,0-.32.87A11.7,11.7,0,0,0,233,163c-.05.7-.07,1.63-.07,2.81a.33.33,0,0,0,.12.3l.29.13a1.32,1.32,0,0,1,.29.15.38.38,0,0,1,.12.32.85.85,0,0,1-.14.51,1.65,1.65,0,0,1-.31.33,3.63,3.63,0,0,0-.28.27.37.37,0,0,0-.13.28,12.08,12.08,0,0,0,.13,1.55c.08.67.16,1.32.25,2s.16,1.18.25,1.63.12.64.12.57a1.21,1.21,0,0,1-.26.69.78.78,0,0,1-.64.36.8.8,0,0,1-.71-.49,4.29,4.29,0,0,1-.41-1.24,14.82,14.82,0,0,1-.23-1.59c0-.56-.1-1.1-.15-1.6s-.1-.91-.15-1.23-.14-.49-.26-.49a8.67,8.67,0,0,0-1.52.24c-.74.17-1.49.37-2.27.6s-1.46.49-2.06.73-.9.47-.9.64c0,.35,0,.71,0,1.09s0,.74.07,1.09a7.41,7.41,0,0,0,.17.95,1.85,1.85,0,0,0,.3.66.84.84,0,0,1-.56.68,2.75,2.75,0,0,1-.75.14c-.23,0-.41-.31-.55-.93a18.65,18.65,0,0,1-.31-2.42c-.08-1-.12-2.08-.14-3.28s0-2.38,0-3.53a27.9,27.9,0,0,1,.31-4.84c.22-1.1.66-1.64,1.34-1.64a1.43,1.43,0,0,1,.84.31.91.91,0,0,1,.43.73,1.46,1.46,0,0,1-.15.57,7.35,7.35,0,0,0-.3.82c-.07.28-.15.65-.22,1.11s-.15,1-.23,1.54-.13,1.14-.17,1.74-.05,1.18-.05,1.72c0,.3,0,.63,0,1s.09.52.19.52a3.91,3.91,0,0,0,.66-.22c.38-.15.78-.29,1.18-.41,1.65-.5,2.89-.86,3.71-1.07s1.24-.48,1.24-.81V164.3c0-3.92.46-5.89,1.38-5.89a1.75,1.75,0,0,1,.74.15,1.71,1.71,0,0,1,.52.38,1.47,1.47,0,0,1,.3.45,1.12,1.12,0,0,1,.1.33c0,.11,0,.17-.08.19A.72.72,0,0,0,234,160Z"/><path class="cls-1" d="M247.72,175.33c0,.34-.27.52-.82.52a1,1,0,0,1-1.09-.75,13.8,13.8,0,0,1,0-1.46,1.29,1.29,0,0,0-.11-.6,7.56,7.56,0,0,1-4.54,1.54,6.35,6.35,0,0,1-3.26-.94,3.05,3.05,0,0,1-1.8-2.63c0-1,.71-2,2.14-3a6.46,6.46,0,0,1,3.6-1.35h3.71a1.08,1.08,0,0,0,.23-.78,12.86,12.86,0,0,0-.42-3.79,2.64,2.64,0,0,0-2.66-2.14,3.29,3.29,0,0,0-2.62,1.8A5.73,5.73,0,0,0,239,164.9v.41a.27.27,0,0,1-.3.3,1.26,1.26,0,0,1-.83-.45,1.23,1.23,0,0,1-.45-.78,7.55,7.55,0,0,1,.64-2.65,8.21,8.21,0,0,1,1.39-2.42,3,3,0,0,1,2.32-1,6.42,6.42,0,0,1,3.94,1.35,4.4,4.4,0,0,1,2,3.52Zm-2-6c0-1-.78-1.5-2.33-1.5a7.71,7.71,0,0,0-3.22.64,2.65,2.65,0,0,0-1.77,2.47,1.77,1.77,0,0,0,.94,1.58,3.47,3.47,0,0,0,1.88.49,5.1,5.1,0,0,0,3-1A3.16,3.16,0,0,0,245.74,169.36Z"/><path class="cls-1" d="M249.19,175.44c-.08-.08-.12-.14-.12-.19a.26.26,0,0,1,.12-.23,9.07,9.07,0,0,0,1.33-.88c.58-.43,1.22-.95,1.91-1.53s1.39-1.21,2.12-1.86,1.39-1.28,2-1.87,1.08-1.13,1.46-1.58a2.08,2.08,0,0,0,.56-.94.83.83,0,0,0-.34-.54,10.21,10.21,0,0,0-.92-.75l-1.33-1c-.5-.38-1-.8-1.53-1.28-.93-.8-1.74-1.48-2.44-2s-1.29-1-1.76-1.34a1.27,1.27,0,0,1,0-.41,1.37,1.37,0,0,1,.34-1,1.1,1.1,0,0,1,.86-.38s.34.27.95.81l2.18,1.91c.84.74,1.69,1.49,2.57,2.25s1.6,1.36,2.17,1.78c0-1.12,0-2-.07-2.62s-.1-1.11-.15-1.45a7.29,7.29,0,0,0-.15-.78,2.75,2.75,0,0,1-.08-.7c0-.25.2-.5.58-.75a2,2,0,0,1,1-.37,1.71,1.71,0,0,1,.73.2q.39.21.39.51c0,.07-.05.38-.15.92s-.2,1.37-.3,2.49c-.05.6-.09,1.13-.11,1.58s0,.73,0,.86a.17.17,0,0,0,.19.19c.27-.2.63-.49,1.07-.87l1.44-1.25q.79-.69,1.65-1.5c.58-.54,1.13-1.07,1.65-1.6a17.15,17.15,0,0,1,1.78-1.55,2.35,2.35,0,0,1,.85-.47,1.19,1.19,0,0,1,.67.19,1.66,1.66,0,0,1,.51.48,2.88,2.88,0,0,1,.32.66,2.39,2.39,0,0,1,.11.66c0,.37-.07.59-.21.65a.87.87,0,0,1-.39.1l-.28,0-.32,0a2.55,2.55,0,0,0-1.61.67c-.55.46-1.23,1-2,1.58l-1.57,1.2q-.8.6-1.41,1.14a13.44,13.44,0,0,0-1,1,1.2,1.2,0,0,0-.38.64c0,.12.19.39.56.78s.83.87,1.37,1.39,1.13,1.08,1.77,1.65l1.74,1.58c.87.8,1.52,1.37,1.95,1.7a8.44,8.44,0,0,0,1.09.77,1.21,1.21,0,0,0,.5.19l.53.06a1,1,0,0,1,.39.09.3.3,0,0,1,.15.3.77.77,0,0,1-.26.58,2.1,2.1,0,0,1-.6.38c-.23.08-.44.15-.64.2a2.52,2.52,0,0,1-.37.08,2.16,2.16,0,0,1-1.07-.4,11.4,11.4,0,0,1-1.39-1c-.49-.4-1-.84-1.48-1.31l-1.39-1.35-1.11-1.13-.58-.6a11.94,11.94,0,0,1-1.1-1.16,4,4,0,0,0-.88-.83.63.63,0,0,0-.19.38,4.34,4.34,0,0,0-.08,1c0,.28,0,.62,0,1s.05.8.08,1.22,0,.78.07,1.12,0,.58,0,.73a4.12,4.12,0,0,0,.26,1,3.08,3.08,0,0,1,.23.95.58.58,0,0,1-.27.44,1,1,0,0,1-.63.2,1.17,1.17,0,0,1-1.07-.49,4,4,0,0,1-.43-1.79c-.05-.53-.1-1-.14-1.43s-.06-.84-.07-1.26,0-.82,0-1.23v-1.37q-.75.86-1.41,1.5c-.43.42-.88.88-1.33,1.38s-.93,1-1.46,1.6-1,1.07-1.56,1.54a14.36,14.36,0,0,1-1.44,1.16,2.15,2.15,0,0,1-1.12.47A2.91,2.91,0,0,1,249.19,175.44Z"/><path class="cls-1" d="M285,175.33c0,.34-.28.52-.83.52a1,1,0,0,1-1.09-.75c0-.08,0-.56,0-1.46a1.28,1.28,0,0,0-.12-.6,7.55,7.55,0,0,1-4.53,1.54,6.36,6.36,0,0,1-3.27-.94,3.05,3.05,0,0,1-1.8-2.63c0-1,.72-2,2.14-3a6.46,6.46,0,0,1,3.6-1.35h3.71a1.08,1.08,0,0,0,.23-.78,13.28,13.28,0,0,0-.41-3.79A2.65,2.65,0,0,0,280,160a3.29,3.29,0,0,0-2.62,1.8,5.73,5.73,0,0,0-1.09,3.15v.41a.27.27,0,0,1-.3.3,1.7,1.7,0,0,1-1.27-1.23,7.5,7.5,0,0,1,.63-2.65,8.21,8.21,0,0,1,1.39-2.42,3.07,3.07,0,0,1,2.33-1,6.41,6.41,0,0,1,3.93,1.35,4.4,4.4,0,0,1,1.95,3.52Zm-2-6c0-1-.78-1.5-2.33-1.5a7.71,7.71,0,0,0-3.22.64,2.64,2.64,0,0,0-1.76,2.47,1.76,1.76,0,0,0,.93,1.58,3.47,3.47,0,0,0,1.88.49,5.1,5.1,0,0,0,3.05-1A3.14,3.14,0,0,0,283.05,169.36Z"/><path class="cls-1" d="M298.27,159.84a4.36,4.36,0,0,1-1.42.37c-.2,0-.48,0-.85.08l-1.08.07-1,.06a1.59,1.59,0,0,0-.45.05c0,.13-.06.64-.11,1.52s-.08,2.41-.08,4.56c0,1.07,0,2,.08,2.68s.1,1.36.15,1.93a4.52,4.52,0,0,0,.05.53c0,.22.09.48.14.78s.09.57.13.79a4.83,4.83,0,0,1,.05.6.8.8,0,0,1-.37.6,1.14,1.14,0,0,1-.68.3c-.5,0-.9-.51-1.2-1.54a15.15,15.15,0,0,1-.28-2.17c-.09-1.07-.13-2.52-.13-4.35s0-3.13.08-4.07.08-1.58.11-1.93a1.85,1.85,0,0,0-.62,0l-1.26.09-1.42.13-1.09.12c-.8.12-1.2-.16-1.2-.87,0-.15.24-.31.71-.48a14.13,14.13,0,0,1,1.75-.51c.68-.16,1.43-.31,2.23-.45s1.52-.24,2.17-.32l1.07-.09,1.3-.1,1.36-.07,1.26-.07c.7,0,1.05.27,1.05.82A1.08,1.08,0,0,1,298.27,159.84Z"/><path class="cls-1" d="M302.77,159.84c-.17.92-.36,1.85-.56,2.79a14.27,14.27,0,0,0-.3,3q0,.27.3.27l.69,0c.29,0,.7,0,1.22,0a14,14,0,0,1,2.91.26,9,9,0,0,1,2.57,1,5.79,5.79,0,0,1,1.63,1.22,2.51,2.51,0,0,1,.43,1.59,3.18,3.18,0,0,1-.6,1.92,5,5,0,0,1-1.54,1.38,7.52,7.52,0,0,1-2,.85,8.32,8.32,0,0,1-2.1.28c-.38,0-.88,0-1.52-.09a16.49,16.49,0,0,1-1.82-.29c-.05,0-.08.05-.09.14a.81.81,0,0,1-.12.28,1.13,1.13,0,0,1-.26.28.86.86,0,0,1-.54.13.58.58,0,0,1-.51-.24,2.14,2.14,0,0,1-.26-.55,3.47,3.47,0,0,1-.13-.54c0-.16-.08-.26-.15-.28-.45-.18-.68-.42-.68-.72a.49.49,0,0,1,.21-.48,1.23,1.23,0,0,1,.51-.15v-2.91a11.65,11.65,0,0,1,.07-1.29.52.52,0,0,0-.26-.49.48.48,0,0,1-.26-.45.65.65,0,0,1,.22-.53.56.56,0,0,0,.23-.45c.12-1.52.24-2.91.35-4.16s.25-2.29.4-3.11c.07-.55.47-.83,1.2-.83a1.14,1.14,0,0,1,.82.29.94.94,0,0,1,.3.73A2.69,2.69,0,0,1,302.77,159.84Zm7.09,9.9a1.7,1.7,0,0,0-.3-.92,2.54,2.54,0,0,0-1-.83,7.55,7.55,0,0,0-1.84-.58,15,15,0,0,0-2.83-.22c-.4,0-.76,0-1.07,0s-.57,0-.77,0-.14.1-.19.28a3.1,3.1,0,0,0-.09.66c0,.25,0,.51,0,.77s0,.48,0,.65c0,.9,0,1.82.12,2.74a5.13,5.13,0,0,0,1.59.47,12.31,12.31,0,0,0,1.93.17,5.19,5.19,0,0,0,1.59-.26,5.59,5.59,0,0,0,1.47-.72,3.88,3.88,0,0,0,1.05-1.05A2.21,2.21,0,0,0,309.86,169.74Z"/><path class="cls-1" d="M334.08,175.14a2.91,2.91,0,0,1-1.5.75,2,2,0,0,1-1-.47,10.05,10.05,0,0,1-1.35-1.2c-.48-.49-1-1-1.47-1.58s-1-1.1-1.37-1.61-.76-.95-1.05-1.33-.47-.6-.54-.68a11.52,11.52,0,0,0-1.72-1.5c-.36,0-.56.22-.62.64a8.08,8.08,0,0,0-.1,1.31V171c0,.49,0,.87,0,1.15a4.2,4.2,0,0,0,.26,1,3.19,3.19,0,0,1,.23,1,.57.57,0,0,1-.27.43,1,1,0,0,1-.63.21,1.36,1.36,0,0,1-1.13-.49,3.09,3.09,0,0,1-.37-1.8c0-1.52,0-2.84,0-4s0-2.08,0-2.9,0-1.53,0-2.12,0-1.09,0-1.52v-.68a2.45,2.45,0,0,0,0-.48c0-.15,0-.3-.07-.45l-.12-.57a4.13,4.13,0,0,1-.11-.86c0-.25.2-.5.58-.75a2,2,0,0,1,1-.37,1.72,1.72,0,0,1,.74.2q.39.21.39.51a9.44,9.44,0,0,1-.22.92,9.56,9.56,0,0,0-.23,2.49c0,.78,0,1.42-.07,1.91s-.08.82-.08.94a.17.17,0,0,0,.19.19c.27-.2.64-.48,1.08-.84s.95-.79,1.49-1.28,1.1-1,1.68-1.59,1.15-1.17,1.67-1.77a12.66,12.66,0,0,1,1.67-1.66,2.24,2.24,0,0,1,.85-.51,1.16,1.16,0,0,1,.86.37,1.46,1.46,0,0,1,.34,1,1.65,1.65,0,0,1,0,.41c-.48.33-1.07.77-1.77,1.33s-1.51,1.25-2.43,2q-3.19,2.81-3.19,3.71a1.88,1.88,0,0,0,.43.77c.29.39.65.84,1.09,1.35s.9,1,1.41,1.59l1.38,1.54a18.73,18.73,0,0,0,2.18,2.14,10.09,10.09,0,0,0,1.83,1.23.26.26,0,0,1,.12.23C334.2,175,334.16,175.06,334.08,175.14Z"/><path class="cls-1" d="M347.44,160a3,3,0,0,0-.42.45,2.7,2.7,0,0,0-.32.87,13.74,13.74,0,0,0-.2,1.65c-.05.7-.08,1.63-.08,2.81a.31.31,0,0,0,.13.3,1.57,1.57,0,0,0,.29.13,1.25,1.25,0,0,1,.28.15.36.36,0,0,1,.13.32.85.85,0,0,1-.15.51,1.38,1.38,0,0,1-.3.33,2.56,2.56,0,0,0-.29.27.39.39,0,0,0-.12.28,13.77,13.77,0,0,0,.12,1.55c.08.67.17,1.32.25,2s.17,1.18.25,1.63.13.64.13.57a1.16,1.16,0,0,1-.27.69.75.75,0,0,1-.63.36.82.82,0,0,1-.72-.49,4.61,4.61,0,0,1-.41-1.24,14.87,14.87,0,0,1-.22-1.59c-.06-.56-.1-1.1-.15-1.6s-.1-.91-.15-1.23-.14-.49-.27-.49a8.8,8.8,0,0,0-1.52.24c-.73.17-1.49.37-2.26.6s-1.47.49-2.07.73-.9.47-.9.64c0,.35,0,.71,0,1.09s0,.74.08,1.09a5,5,0,0,0,.17.95,1.56,1.56,0,0,0,.3.66.87.87,0,0,1-.57.68,2.75,2.75,0,0,1-.75.14q-.33,0-.54-.93a18.43,18.43,0,0,1-.32-2.42c-.07-1-.12-2.08-.13-3.28s0-2.38,0-3.53a27.7,27.7,0,0,1,.32-4.84c.21-1.1.66-1.64,1.33-1.64a1.39,1.39,0,0,1,.84.31.93.93,0,0,1,.44.73,1.46,1.46,0,0,1-.15.57,7.35,7.35,0,0,0-.3.82c-.08.28-.15.65-.23,1.11s-.15,1-.22,1.54-.14,1.14-.17,1.74-.06,1.18-.06,1.72c0,.3,0,.63,0,1s.09.52.19.52a4,4,0,0,0,.65-.22c.39-.15.78-.29,1.18-.41,1.65-.5,2.89-.86,3.72-1.07s1.23-.48,1.23-.81V164.3c0-3.92.46-5.89,1.38-5.89a1.72,1.72,0,0,1,.74.15,1.75,1.75,0,0,1,.53.38,2,2,0,0,1,.3.45,1,1,0,0,1,.09.33c0,.11,0,.17-.07.19A.72.72,0,0,0,347.44,160Z"/><path class="cls-1" d="M361.42,166.85a10.77,10.77,0,0,1-1.42,5.62,5.21,5.21,0,0,1-4.69,2.89,5,5,0,0,1-4.54-2.36,9.58,9.58,0,0,1-1.23-5.17,14.76,14.76,0,0,1,1.42-6.27c1.2-2.52,2.72-3.79,4.58-3.79a4.39,4.39,0,0,1,2,.83Q361.42,161,361.42,166.85Zm-1.8,0a13.71,13.71,0,0,0-.63-4.31c-.63-1.78-1.59-2.66-2.89-2.66q-2.25,0-3.53,3a12.4,12.4,0,0,0-1,4.91,10.35,10.35,0,0,0,.67,4,3.21,3.21,0,0,0,3,2.21c1.5,0,2.64-.85,3.41-2.55A10.89,10.89,0,0,0,359.62,166.81Z"/><path class="cls-1" d="M375.56,159.31a1.29,1.29,0,0,1-.08.51.92.92,0,0,1-.19.28l-.21.19a.38.38,0,0,0-.14.22,15.66,15.66,0,0,0-.29,1.93c-.07.69-.12,1.37-.16,2.05s-.05,1.32-.05,1.95v1.68c0,1,0,1.82.05,2.61a13,13,0,0,0,.36,2.42,1.59,1.59,0,0,0,.07.28.38.38,0,0,1,0,.17c0,.13-.13.24-.39.34a2,2,0,0,1-.72.15,1.36,1.36,0,0,1-.74-.21.94.94,0,0,1-.41-.69,20,20,0,0,1-.31-2.38q-.09-1.31-.09-2.76c0-1.28,0-2.63.09-4.07s.15-2.79.25-4.07c0-.17-.18-.28-.53-.32s-1-.05-2-.05a9.63,9.63,0,0,0-2.87.39c-.83.26-1.28.65-1.36,1.15s-.13,1-.18,1.5-.09,1-.12,1.61,0,1.3-.05,2.12,0,1.81,0,3c0,.87,0,1.75.05,2.64a14.71,14.71,0,0,0,.36,2.64c-.13.2-.26.3-.41.3a1.62,1.62,0,0,1-1.8-1.76c-.05-1.07-.08-2.21-.1-3.39s0-2.31,0-3.36c0-2,0-3.94.11-5.89a1.18,1.18,0,0,1-.17-.54c0-.19,0-.38,0-.58a.64.64,0,0,1,.26-.58,2.22,2.22,0,0,1,1.09-.17,21.26,21.26,0,0,0,3-.32,35.55,35.55,0,0,1,5.33-.32,3.39,3.39,0,0,1,1.83.34A1.09,1.09,0,0,1,375.56,159.31Z"/><path class="cls-1" d="M390,175.14a2.91,2.91,0,0,1-1.5.75,1.94,1.94,0,0,1-1-.47,10.71,10.71,0,0,1-1.35-1.2c-.48-.49-1-1-1.46-1.58s-1-1.1-1.37-1.61-.76-.95-1.05-1.33-.47-.6-.55-.68a11,11,0,0,0-1.72-1.5c-.35,0-.56.22-.62.64a9.4,9.4,0,0,0-.09,1.31V171c0,.49,0,.87,0,1.15a4.2,4.2,0,0,0,.26,1,3.11,3.11,0,0,1,.22,1,.58.58,0,0,1-.26.43,1,1,0,0,1-.64.21,1.34,1.34,0,0,1-1.12-.49,3.08,3.08,0,0,1-.38-1.8c0-1.52,0-2.84,0-4s0-2.08,0-2.9,0-1.53,0-2.12,0-1.09,0-1.52v-.68a3.58,3.58,0,0,0,0-.48c0-.15,0-.3-.08-.45s-.06-.34-.11-.57a3.55,3.55,0,0,1-.11-.86c0-.25.19-.5.58-.75a2,2,0,0,1,1-.37,1.64,1.64,0,0,1,.73.2q.39.21.39.51a6.92,6.92,0,0,1-.22.92,10,10,0,0,0-.23,2.49c0,.78,0,1.42-.07,1.91s-.07.82-.07.94.06.19.18.19c.28-.2.64-.48,1.09-.84s.94-.79,1.48-1.28,1.1-1,1.69-1.59,1.14-1.17,1.67-1.77a12.08,12.08,0,0,1,1.67-1.66,2.16,2.16,0,0,1,.84-.51,1.13,1.13,0,0,1,.86.37,1.41,1.41,0,0,1,.34,1,1.27,1.27,0,0,1,0,.41c-.47.33-1.06.77-1.76,1.33s-1.51,1.25-2.44,2c-2.12,1.87-3.19,3.11-3.19,3.71a2,2,0,0,0,.44.77c.28.39.65.84,1.08,1.35s.91,1,1.41,1.59l1.39,1.54a18.72,18.72,0,0,0,2.17,2.14,10.12,10.12,0,0,0,1.84,1.23.25.25,0,0,1,.11.23A.29.29,0,0,1,390,175.14Z"/><path class="cls-1" d="M403.42,159.54c-.21,1.1-.4,2.2-.58,3.3a16.46,16.46,0,0,0-.36,3.3v11.74a5.33,5.33,0,0,1-1.51,4,5.58,5.58,0,0,1-4.07,1.48,7.85,7.85,0,0,1-3.11-.75,5.55,5.55,0,0,1-2.74-2.06,1.35,1.35,0,0,1-.19-.68,1,1,0,0,1,1.05-1.09,1,1,0,0,1,.49.15c.42.46.85.89,1.27,1.32a4.64,4.64,0,0,0,3.23,1.16,3.29,3.29,0,0,0,3.3-1.73,10.91,10.91,0,0,0,.48-3.93c0-.25-.05-.75-.14-1.5a6,6,0,0,1-.08-1.65,11.13,11.13,0,0,1-1.5,1.24,3.37,3.37,0,0,1-1.8.52,4.31,4.31,0,0,1-3.86-2,7.65,7.65,0,0,1-1.17-4.39q0-5.06.16-8.55a1.19,1.19,0,0,1,1.31-1.2c.95,0,1.37.17,1.27.49q-.71,1.95-.71,8.74,0,5.25,3,5.25c1.22,0,2.19-.94,2.91-2.81a11.61,11.61,0,0,0,.78-4.39v-4.28c0-.42.06-1,.1-1.61s.44-1,1.22-.9S403.47,159.06,403.42,159.54Z"/><path class="cls-1" d="M425.4,159.31a1.29,1.29,0,0,1-.08.51,1,1,0,0,1-.2.28,1.8,1.8,0,0,1-.21.19.37.37,0,0,0-.13.22,17.77,17.77,0,0,0-.3,1.93c-.06.69-.11,1.37-.15,2.05s-.06,1.32-.06,1.95v1.68c0,1,0,1.82.06,2.61a13,13,0,0,0,.35,2.42,1.43,1.43,0,0,0,.08.28.59.59,0,0,1,0,.17c0,.13-.13.24-.39.34a2.11,2.11,0,0,1-.73.15,1.38,1.38,0,0,1-.74-.21.93.93,0,0,1-.4-.69,18.1,18.1,0,0,1-.31-2.38c-.07-.87-.1-1.79-.1-2.76,0-1.28,0-2.63.1-4.07s.14-2.79.24-4.07c0-.17-.18-.28-.53-.32s-1-.05-2-.05a9.56,9.56,0,0,0-2.86.39c-.83.26-1.28.65-1.36,1.15s-.14,1-.19,1.5-.09,1-.11,1.61,0,1.3-.06,2.12,0,1.81,0,3q0,1.3.06,2.64a14.71,14.71,0,0,0,.36,2.64.53.53,0,0,1-.42.3,1.62,1.62,0,0,1-1.8-1.76c-.05-1.07-.08-2.21-.09-3.39s0-2.31,0-3.36c0-2,0-3.94.11-5.89a1.17,1.17,0,0,1-.16-.54,5.52,5.52,0,0,1,0-.58.62.62,0,0,1,.26-.58,2.19,2.19,0,0,1,1.09-.17,21.26,21.26,0,0,0,3-.32,35.4,35.4,0,0,1,5.32-.32,3.45,3.45,0,0,1,1.84.34A1.12,1.12,0,0,1,425.4,159.31Z"/><path class="cls-1" d="M438.82,166.85a10.77,10.77,0,0,1-1.42,5.62,5.21,5.21,0,0,1-4.69,2.89,5,5,0,0,1-4.54-2.36,9.58,9.58,0,0,1-1.24-5.17,14.78,14.78,0,0,1,1.43-6.27c1.2-2.52,2.72-3.79,4.57-3.79a4.38,4.38,0,0,1,2,.83Q438.81,161,438.82,166.85Zm-1.8,0a13.42,13.42,0,0,0-.64-4.31c-.62-1.78-1.58-2.66-2.88-2.66q-2.25,0-3.53,3a12.4,12.4,0,0,0-1,4.91,10.35,10.35,0,0,0,.67,4,3.21,3.21,0,0,0,3,2.21c1.5,0,2.64-.85,3.41-2.55A10.89,10.89,0,0,0,437,166.81Z"/><path class="cls-1" d="M440,174.31a1.25,1.25,0,0,1,.28-.84,2.81,2.81,0,0,1,1.63-.43,5.17,5.17,0,0,0,.83-1.52,19.22,19.22,0,0,0,.67-2.23c.2-.83.38-1.69.55-2.59s.3-1.78.41-2.62.21-1.64.28-2.37.13-1.31.15-1.76a2.24,2.24,0,0,1,.64-1.71,1.92,1.92,0,0,1,1.16-.43h1.11c.56,0,1.19,0,1.87,0l2,.07,1.55.08c.48.05.78.21.9.47a1.5,1.5,0,0,1,.19.62l-.15.37a2.61,2.61,0,0,1-.17.28.81.81,0,0,1-.2.21c-.15,1.27-.27,2.52-.36,3.76s-.13,2.56-.13,4c0,.83,0,1.64.08,2.44a23,23,0,0,0,.29,2.36c.79,0,1.25.09,1.4.28a1.59,1.59,0,0,1,.22.95c0,.9,0,1.64-.06,2.23a9,9,0,0,1-.17,1.38,1.27,1.27,0,0,1-.34.71.78.78,0,0,1-.56.21,1.87,1.87,0,0,1-.58-.15c-.26-.1-.39-.25-.39-.44a3.38,3.38,0,0,1,0-.34c0-.2.06-.45.11-.76s.08-.64.1-1,.05-.73.05-1.1a1.53,1.53,0,0,0-.49-.07h-.56l-2.22,0-3.07.1c-1.08,0-2.1.09-3.06.17s-1.67.15-2.12.22a5.88,5.88,0,0,0,.14,1.09c.08.45.16.89.24,1.31a.78.78,0,0,1-.43.41,3,3,0,0,1-.51.23,2.37,2.37,0,0,1-.43,0,1.2,1.2,0,0,1-.54-.26c0-.23-.1-.49-.14-.79s-.07-.6-.11-.92-.07-.61-.09-.9A6.92,6.92,0,0,1,440,174.31Zm4-1.54,1.85-.07,2.08-.07,2-.06,1.72,0a22.72,22.72,0,0,1-.33-2.83c-.05-.95-.08-1.94-.08-3,0-1.22,0-2.37.06-3.44s.08-2.23.13-3.5a27.4,27.4,0,0,0-3.62.17c-.74.11-1.12.28-1.14.5-.08.87-.19,1.87-.34,3s-.34,2.26-.56,3.42-.49,2.25-.79,3.3A13.46,13.46,0,0,1,444,172.77Z"/><path class="cls-1" d="M468.56,166.85a10.77,10.77,0,0,1-1.43,5.62,5.18,5.18,0,0,1-4.68,2.89,5,5,0,0,1-4.54-2.36,9.49,9.49,0,0,1-1.24-5.17,14.78,14.78,0,0,1,1.43-6.27c1.2-2.52,2.72-3.79,4.57-3.79a4.38,4.38,0,0,1,2,.83Q468.55,161,468.56,166.85Zm-1.8,0a13.42,13.42,0,0,0-.64-4.31c-.62-1.78-1.59-2.66-2.89-2.66q-2.25,0-3.52,3a12.41,12.41,0,0,0-1,4.91,10.33,10.33,0,0,0,.68,4,3.21,3.21,0,0,0,3,2.21c1.5,0,2.63-.85,3.41-2.55A10.89,10.89,0,0,0,466.76,166.81Z"/><path class="cls-1" d="M472,153.16a3.18,3.18,0,0,1,.92-2.4,6.07,6.07,0,0,1,2.3-1.38,12.29,12.29,0,0,1,2.95-.64c1-.1,2-.15,2.86-.15a1.41,1.41,0,0,1,1,.26,1.21,1.21,0,0,1-.06,1.52,1.4,1.4,0,0,1-.82.21,2.89,2.89,0,0,1-.51,0l-.32-.1-.33-.09a3.37,3.37,0,0,0-.53,0l-1.2.06a10.57,10.57,0,0,0-1.86.3,4.57,4.57,0,0,0-1.68.79A1.77,1.77,0,0,0,474,153a3.51,3.51,0,0,0,1,2.27,16.71,16.71,0,0,0,3,2.61,12,12,0,0,1,1.67,1.42,8.08,8.08,0,0,1,1.35,1.86,9.36,9.36,0,0,1,.9,2.51,15.53,15.53,0,0,1,.32,3.4,13.18,13.18,0,0,1-.39,3.26,8.49,8.49,0,0,1-1.16,2.68,6.37,6.37,0,0,1-1.84,1.82,4.43,4.43,0,0,1-2.42.67,5.64,5.64,0,0,1-4.44-1.8c-1.09-1.2-1.63-3.08-1.63-5.66a14.27,14.27,0,0,1,.69-4.84,11.92,11.92,0,0,1,1.52-3,6.73,6.73,0,0,1,1.52-1.57q.69-.47.69-.66c0-.2-.15-.42-.45-.65a8.86,8.86,0,0,1-1.16-1.22,5.32,5.32,0,0,1-.88-1.48A3.86,3.86,0,0,1,472,153.16Zm.45,14.85a8.41,8.41,0,0,0,1,4.43,3.09,3.09,0,0,0,4.35,1,4.32,4.32,0,0,0,1.33-1.44,8.3,8.3,0,0,0,.89-2.2,11.4,11.4,0,0,0,.31-2.79,15,15,0,0,0-.24-2.85,9.81,9.81,0,0,0-.67-2.16,6.13,6.13,0,0,0-1-1.57,6.57,6.57,0,0,0-1.27-1.11,1.77,1.77,0,0,0-.79-.34c-.17,0-.47.23-.9.68a8.56,8.56,0,0,0-1.27,1.89,17,17,0,0,0-1.15,2.87A12.48,12.48,0,0,0,472.46,168Z"/><path class="cls-1" d="M495.45,165.05a15.75,15.75,0,0,1-1.09,6.22c-1,2.33-2.51,3.49-4.61,3.49a4.52,4.52,0,0,1-3.6-1.91c-.18.07-.27.85-.27,2.32a33.25,33.25,0,0,0,.49,6.91,5.13,5.13,0,0,0,.36.89,3.57,3.57,0,0,1,.31.87q0,.6-.75.6a2.16,2.16,0,0,1-1.25-.27c-.24-.17-.45-.75-.62-1.72a11.59,11.59,0,0,1-.22-1.95V171c0-.87,0-2.05.13-3.52.09-1.73.14-2.9.17-3.53s0-1.54,0-2.62v-2.66c0-1.73.45-2.59,1.35-2.59.44,0,.67.16.67.49,0,.62,0,1.54-.15,2.73s-.15,2.11-.15,2.7h.15c.58-.77,1.15-1.56,1.73-2.36a3.06,3.06,0,0,1,2.51-1.31,4.12,4.12,0,0,1,3.79,2.25A8.92,8.92,0,0,1,495.45,165.05Zm-1.88.15a12.58,12.58,0,0,0-.41-3.41c-.43-1.4-1.12-2.1-2.06-2.1-.7,0-1.56.61-2.56,1.83a10,10,0,0,0-1.83,3.31,19.36,19.36,0,0,0-.68,3.75c-.1,1.19-.15,1.77-.15,1.72s.12.2.34.37l.45.34c.39.58.8,1.16,1.21,1.75a2.13,2.13,0,0,0,1.85.88c1.36,0,2.4-1.13,3.09-3.38A16.84,16.84,0,0,0,493.57,165.2Z"/><path class="cls-1" d="M509,175.33c0,.34-.27.52-.82.52a1,1,0,0,1-1.09-.75,11.17,11.17,0,0,1,0-1.46,1.29,1.29,0,0,0-.11-.6,7.56,7.56,0,0,1-4.54,1.54,6.35,6.35,0,0,1-3.26-.94,3.05,3.05,0,0,1-1.8-2.63c0-1,.71-2,2.14-3a6.46,6.46,0,0,1,3.6-1.35h3.71a1.08,1.08,0,0,0,.23-.78,12.86,12.86,0,0,0-.42-3.79,2.64,2.64,0,0,0-2.66-2.14,3.3,3.3,0,0,0-2.63,1.8,5.79,5.79,0,0,0-1.08,3.15v.41a.27.27,0,0,1-.3.3,1.26,1.26,0,0,1-.83-.45,1.23,1.23,0,0,1-.45-.78,7.33,7.33,0,0,1,.64-2.65,8.21,8.21,0,0,1,1.39-2.42,3,3,0,0,1,2.32-1,6.42,6.42,0,0,1,3.94,1.35,4.43,4.43,0,0,1,1.95,3.52Zm-2-6c0-1-.78-1.5-2.33-1.5a7.71,7.71,0,0,0-3.22.64,2.65,2.65,0,0,0-1.77,2.47,1.77,1.77,0,0,0,.94,1.58,3.47,3.47,0,0,0,1.88.49,5.1,5.1,0,0,0,3.05-1A3.16,3.16,0,0,0,507,169.36Z"/><path class="cls-1" d="M522.22,159.84a4.45,4.45,0,0,1-1.43.37c-.2,0-.48,0-.84.08l-1.09.07-1,.06a1.46,1.46,0,0,0-.45.05c0,.13-.07.64-.12,1.52s-.07,2.41-.07,4.56c0,1.07,0,2,.07,2.68s.1,1.36.16,1.93a3,3,0,0,0,0,.53c0,.22.08.48.13.78s.1.57.13.79a3.57,3.57,0,0,1,.06.6.84.84,0,0,1-.37.6,1.14,1.14,0,0,1-.68.3c-.5,0-.9-.51-1.2-1.54a15.15,15.15,0,0,1-.28-2.17c-.09-1.07-.13-2.52-.13-4.35s0-3.13.07-4.07.09-1.58.11-1.93a1.78,1.78,0,0,0-.61,0l-1.26.09-1.43.13L511,161c-.8.12-1.2-.16-1.2-.87,0-.15.23-.31.71-.48a13.93,13.93,0,0,1,1.74-.51c.69-.16,1.43-.31,2.24-.45s1.52-.24,2.17-.32l1.07-.09,1.29-.1,1.37-.07,1.26-.07c.7,0,1.05.27,1.05.82A1.1,1.1,0,0,1,522.22,159.84Z"/><path class="cls-1" d="M526.72,159.84c-.18.92-.36,1.85-.56,2.79a14.27,14.27,0,0,0-.3,3q0,.27.3.27l.69,0c.29,0,.69,0,1.22,0a14,14,0,0,1,2.91.26,9,9,0,0,1,2.56,1,5.87,5.87,0,0,1,1.64,1.22,2.57,2.57,0,0,1,.43,1.59,3.18,3.18,0,0,1-.6,1.92,5.13,5.13,0,0,1-1.54,1.38,7.59,7.59,0,0,1-2,.85,8.2,8.2,0,0,1-2.1.28c-.37,0-.88,0-1.51-.09A16.12,16.12,0,0,1,526,174s-.08.05-.1.14a.77.77,0,0,1-.11.28,1.13,1.13,0,0,1-.26.28.89.89,0,0,1-.55.13.57.57,0,0,1-.5-.24,2.14,2.14,0,0,1-.26-.55,3.61,3.61,0,0,1-.14-.54c0-.16-.07-.26-.15-.28-.45-.18-.67-.42-.67-.72a.49.49,0,0,1,.21-.48,1.18,1.18,0,0,1,.5-.15v-2.91a11.74,11.74,0,0,1,.08-1.29.51.51,0,0,0-.27-.49.49.49,0,0,1-.26-.45.66.66,0,0,1,.23-.53.55.55,0,0,0,.22-.45c.13-1.52.25-2.91.36-4.16s.24-2.29.39-3.11c.08-.55.48-.83,1.2-.83a1.16,1.16,0,0,1,.83.29.94.94,0,0,1,.3.73A2.82,2.82,0,0,1,526.72,159.84Zm7.09,9.9a1.7,1.7,0,0,0-.3-.92,2.51,2.51,0,0,0-1-.83,7.32,7.32,0,0,0-1.83-.58,15.16,15.16,0,0,0-2.84-.22c-.4,0-.75,0-1.06,0s-.57,0-.77,0-.14.1-.19.28a3.1,3.1,0,0,0-.09.66c0,.25,0,.51,0,.77s0,.48,0,.65c0,.9,0,1.82.11,2.74a5.29,5.29,0,0,0,1.6.47,12.21,12.21,0,0,0,1.93.17,5.29,5.29,0,0,0,1.59-.26,5.37,5.37,0,0,0,1.46-.72,3.62,3.62,0,0,0,1-1.05A2.14,2.14,0,0,0,533.81,169.74Z"/><path class="cls-2" d="M499.05,137.63a87.93,87.93,0,0,0,30.5-21.15,78.72,78.72,0,0,0,16.79-27,79.66,79.66,0,0,0,3.74-39.17,85.72,85.72,0,0,0-8.25-25.74,6.64,6.64,0,0,0-2.44-2.41c-.31-.19-1.77-.87-1.27.11,9.42,18.45,11.74,40.57,5.61,60.43-5.74,18.57-18.58,34-34.8,44.49a83.27,83.27,0,0,1-13.31,7.07c-.81.32,2.37,3.83,3.43,3.41Z"/><path class="cls-2" d="M559.71,29.5,535.8,16.32l-3.36-1.85c-.12-.05-.17,0-.14.13C533,22,533.57,29.33,534,36.71c.13,2.18.24,4.36.25,6.55,0,.77,1.37,1.93,1.87,2.45.17.17,1.5,1.42,1.5,1,0-5.38-.49-10.78-.9-16.15-.31-4.11-.53-8.26-1-12.35,0-.17-.19-.11.07.09a7.88,7.88,0,0,0,1.1.61l4.54,2.5,12.9,7.11,8.49,4.69c.35.19-.76-1.49-.84-1.59a8.68,8.68,0,0,0-2.24-2.12Z"/></g></svg>