<svg xmlns="http://www.w3.org/2000/svg" width="51.404" height="49.637" viewBox="0 0 51.404 49.637"><defs><style>.a{fill:#fff;}</style></defs><g transform="translate(-180.384 -9.994)"><g transform="translate(199.847 24.354)"><path class="a" d="M211.075,29.321a4.547,4.547,0,1,0,4.547,4.547A4.547,4.547,0,0,0,211.075,29.321Zm0,6.82a2.273,2.273,0,1,1,2.274-2.273A2.273,2.273,0,0,1,211.075,36.141Z" transform="translate(-206.528 -29.321)"/></g><g transform="translate(210.002 34.488)"><path class="a" d="M224.716,42.961a4.547,4.547,0,1,0,4.546,4.547A4.547,4.547,0,0,0,224.716,42.961Zm0,6.82a2.273,2.273,0,1,1,2.273-2.273A2.273,2.273,0,0,1,224.716,49.781Z" transform="translate(-220.169 -42.961)"/></g><g transform="translate(199.304 24.142)"><rect class="a" width="25.72" height="2.273" transform="translate(0 18.187) rotate(-45)"/></g><g transform="translate(180.384 9.994)"><path class="a" d="M230.572,23.778l-6.051-4.033h.177v-6.2a.886.886,0,0,0-.886-.887H219.38a.886.886,0,0,0-.887.887v2.185l-8.371-5.583a.885.885,0,0,0-.983,0L188.691,23.778a2.73,2.73,0,1,0,3.028,4.542l2.846-1.9v17.25h-1.773a.886.886,0,0,0-.886-.886h-7.091a.886.886,0,0,0-.887.886h-3.545v1.773h3.545V54.31h-3.545v1.772h3.545a.886.886,0,0,0,.887.887h7.091a.886.886,0,0,0,.886-.887v-.338l6.617,2.748a15.332,15.332,0,0,0,11.278.125L224.379,53.4a3.225,3.225,0,0,0,1.81-1.725,3.284,3.284,0,0,0,.051-2.544,3.215,3.215,0,0,0-1.543-1.69V26.424l2.846,1.9a2.73,2.73,0,1,0,3.028-4.542ZM191.02,55.2H185.7V44.561h5.318Zm29.247-40.769h2.659v4.255l-2.659-1.773Zm4.3,36.529a1.466,1.466,0,0,1-.821.787l-13.691,5.22a13.561,13.561,0,0,1-9.972-.108l-7.288-3.03V45.447h2.247a19.031,19.031,0,0,1,8.467,2,6.269,6.269,0,0,0,2.8.66h6.875a1.33,1.33,0,0,1,.292,2.624c-.116.01-.229.034-.347.034h-10.58v1.772h10.635c.018,0,.035,0,.053,0a5.476,5.476,0,0,0,2.046-.434l7.41-3.145a1.4,1.4,0,0,1,1.1,0,1.458,1.458,0,0,1,.8.825A1.523,1.523,0,0,1,224.565,50.956Zm-11.388-4.623H206.3a4.512,4.512,0,0,1-2-.472,20.807,20.807,0,0,0-7.961-2.142V25.24l13.294-8.863,13.295,8.863V47.1a3.184,3.184,0,0,0-.933.225l-5.746,2.44a3.247,3.247,0,0,0,.033-.324A3.1,3.1,0,0,0,213.176,46.333Zm15.882-19.325a.959.959,0,0,1-.531-.161l-18.4-12.272a.888.888,0,0,0-.983,0l-18.4,12.27a.958.958,0,0,1-1.063-1.6l19.958-13.3L229.59,25.253a.959.959,0,0,1-.532,1.756Z" transform="translate(-180.384 -9.994)"/></g><g transform="translate(189.478 49.397)"><rect class="a" width="2.273" height="2.273"/></g></g></svg>