<svg xmlns="http://www.w3.org/2000/svg" viewBox="0 0 16 16"><defs><style>.cls-1,.cls-2{fill:none;stroke-linecap:round;stroke-miterlimit:10;}.cls-1{stroke:#edeef0;stroke-width:0.1px;}.cls-2{stroke:#9a1636;stroke-width:1.5px;}</style></defs><g id="Слой_1" data-name="Слой 1"><rect class="cls-1" width="16" height="16"/><line class="cls-1" y1="15.06" x2="16" y2="15.06"/><line class="cls-1" y1="14.12" x2="16" y2="14.12"/><line class="cls-1" y1="13.18" x2="16" y2="13.18"/><line class="cls-1" y1="12.24" x2="16" y2="12.24"/><line class="cls-1" y1="11.29" x2="16" y2="11.29"/><line class="cls-1" y1="10.35" x2="16" y2="10.35"/><line class="cls-1" y1="9.41" x2="16" y2="9.41"/><line class="cls-1" y1="8.47" x2="16" y2="8.47"/><line class="cls-1" y1="7.53" x2="16" y2="7.53"/><line class="cls-1" y1="6.59" x2="16" y2="6.59"/><line class="cls-1" y1="5.65" x2="16" y2="5.65"/><line class="cls-1" y1="4.71" x2="16" y2="4.71"/><line class="cls-1" y1="3.76" x2="16" y2="3.76"/><line class="cls-1" y1="2.82" x2="16" y2="2.82"/><line class="cls-1" y1="1.88" x2="16" y2="1.88"/><line class="cls-1" y1="0.94" x2="16" y2="0.94"/><line class="cls-1" x1="15.06" x2="15.06" y2="16"/><line class="cls-1" x1="14.12" x2="14.12" y2="16"/><line class="cls-1" x1="13.18" x2="13.18" y2="16"/><line class="cls-1" x1="12.24" x2="12.24" y2="16"/><line class="cls-1" x1="11.29" x2="11.29" y2="16"/><line class="cls-1" x1="10.35" x2="10.35" y2="16"/><line class="cls-1" x1="9.41" x2="9.41" y2="16"/><line class="cls-1" x1="8.47" x2="8.47" y2="16"/><line class="cls-1" x1="7.53" x2="7.53" y2="16"/><line class="cls-1" x1="6.59" x2="6.59" y2="16"/><line class="cls-1" x1="5.65" x2="5.65" y2="16"/><line class="cls-1" x1="4.71" x2="4.71" y2="16"/><line class="cls-1" x1="3.76" x2="3.76" y2="16"/><line class="cls-1" x1="2.82" x2="2.82" y2="16"/><line class="cls-1" x1="1.88" x2="1.88" y2="16"/><line class="cls-1" x1="0.94" x2="0.94" y2="16"/></g><g id="Menu"><line class="cls-2" x1="1.88" y1="2.82" x2="14.12" y2="2.82"/><line class="cls-2" x1="1.88" y1="8" x2="14.12" y2="8"/><line class="cls-2" x1="1.88" y1="13.18" x2="14.12" y2="13.18"/></g></svg>