<svg xmlns="http://www.w3.org/2000/svg" width="46.968" height="49.844" viewBox="0 0 46.968 49.844"><defs><style>.a{fill:#c91145;}</style></defs><g transform="translate(-14.769)"><g transform="translate(14.769)"><path class="a" d="M61.469,13.489,48.771.294A.959.959,0,0,0,48.08,0H29.154a3.845,3.845,0,0,0-3.841,3.84V17.254h-7.67a2.877,2.877,0,0,0-2.874,2.873V34.51a2.877,2.877,0,0,0,2.874,2.873h7.67v8.628a3.842,3.842,0,0,0,3.841,3.833H57.9a3.84,3.84,0,0,0,3.841-3.831V14.153A.959.959,0,0,0,61.469,13.489ZM48.318,2.588,58.742,13.419H48.318ZM17.643,35.466a.957.957,0,0,1-.957-.956V20.127a.958.958,0,0,1,.957-.956H43.527a.957.957,0,0,1,.957.956V34.51a.957.957,0,0,1-.957.956ZM59.82,46.013A1.921,1.921,0,0,1,57.9,47.927H29.154a1.922,1.922,0,0,1-1.924-1.916V37.383h16.3A2.877,2.877,0,0,0,46.4,34.51V20.127a2.877,2.877,0,0,0-2.874-2.873H27.23V3.84a1.926,1.926,0,0,1,1.924-1.923H46.4V14.378a.959.959,0,0,0,.959.959H59.82Z" transform="translate(-14.769)"/></g><g transform="translate(20.399 23.398)"><path class="a" d="M78.426,241.276a2.159,2.159,0,0,0-1.185-.806,9.675,9.675,0,0,0-1.977-.124H72.6v8.234h1.662v-3.106h1.084a9.487,9.487,0,0,0,1.724-.118,2.409,2.409,0,0,0,.862-.39,2.258,2.258,0,0,0,.7-.812,2.686,2.686,0,0,0,.275-1.275A2.557,2.557,0,0,0,78.426,241.276ZM77,243.542a1.091,1.091,0,0,1-.52.4,4.3,4.3,0,0,1-1.314.129h-.91v-2.336h.8a7.984,7.984,0,0,1,1.2.056,1.149,1.149,0,0,1,.668.365,1.064,1.064,0,0,1,.264.741A1.106,1.106,0,0,1,77,243.542Z" transform="translate(-72.596 -240.346)"/></g><g transform="translate(28.065 23.398)"><path class="a" d="M157.979,242.6a3.6,3.6,0,0,0-.786-1.334,2.754,2.754,0,0,0-1.241-.758,5.933,5.933,0,0,0-1.567-.157h-3.039v8.234h3.128a5.027,5.027,0,0,0,1.471-.174,2.921,2.921,0,0,0,1.168-.657,3.631,3.631,0,0,0,.882-1.455,5.411,5.411,0,0,0,.253-1.752A6.077,6.077,0,0,0,157.979,242.6Zm-1.618,3.381a1.742,1.742,0,0,1-.435.795,1.534,1.534,0,0,1-.671.343,4.527,4.527,0,0,1-1.005.079h-1.241v-5.454h.747a7.531,7.531,0,0,1,1.365.079,1.582,1.582,0,0,1,.769.388,1.884,1.884,0,0,1,.472.8,4.919,4.919,0,0,1,.169,1.466A5.371,5.371,0,0,1,156.361,245.977Z" transform="translate(-151.346 -240.346)"/></g><g transform="translate(36.388 23.398)"><path class="a" d="M242.491,241.739v-1.393h-5.645v8.234h1.662v-3.5h3.437v-1.393h-3.437v-1.949Z" transform="translate(-236.846 -240.346)"/></g></g></svg>