<svg id="Слой_1" data-name="Слой 1" xmlns="http://www.w3.org/2000/svg" viewBox="0 0 64 64"><defs><style>.cls-1{fill:#c90f45;}.cls-2{fill:#fff;}</style></defs><g id="Сгруппировать_85" data-name="Сгруппировать 85"><circle id="Эллипс_13" data-name="Эллипс 13" class="cls-1" cx="31.92" cy="32.08" r="31.92"/></g><path class="cls-2" d="M46.71,45.33V42a2.16,2.16,0,0,0,1.06-2c0-1.18-.71-2.13-1.6-2.13s-1.6,1-1.6,2.13a2.17,2.17,0,0,0,1.07,2v3.34H41.91V29.12l-3.2-1.6v2.87h1.6v1.07h-1.6v2.13h1.6v1.07h-1.6v2.13h1.6v1.07h-1.6V40h1.6v1.07h-1.6v2.13h1.6v1.07h-1.6v1.07H37.64V23.86L31.24,22v2H35v1.07H31.24v2.13H35v1.07H31.24v2.13H35v1.07H31.24v2.13H35v1.07H31.24v2.13H35v1.07H31.24V40H35v1.07H31.24v2.13H35v1.07H31.24v1.07H30.17V15.46h-9.6v2.13h4.8v1.07h-4.8v2.13h4.8v1.07h-4.8V24h4.8v1.07h-4.8v2.13h4.8v1.07h-4.8v2.13h4.8v1.07h-4.8v2.13h4.8v1.07h-4.8v2.13h4.8v1.07h-4.8V40h4.8v1.07h-4.8v2.13h4.8v1.07h-4.8v1.07h-3.2v1.06h32V45.33Z"/></svg>