<svg id="Слой_1" data-name="Слой 1" xmlns="http://www.w3.org/2000/svg" viewBox="0 0 160 39"><defs><style>.cls-1{fill:#841624;}.cls-2{fill:#747373;}</style></defs><g id="Сгруппировать_1" data-name="Сгруппировать 1"><rect id="Прямоугольник_1" data-name="Прямоугольник 1" class="cls-1" x="0.12" y="0.06" width="7.78" height="38.87"/><path id="Контур_1" data-name="Контур 1" class="cls-2" d="M20.85.06H10.48V4h2.59V17.56h7.78Z"/><path id="Контур_2" data-name="Контур 2" class="cls-2" d="M20.85,38.94H10.48V35.05h2.59V21.44h7.78Z"/><path id="Контур_3" data-name="Контур 3" class="cls-1" d="M23.44,4V7.84H26V35.05h7.78V4Z"/><path id="Контур_4" data-name="Контур 4" class="cls-2" d="M46.76,7.84H36.4v3.88H39v5.84H36.4v3.89H39v9.72h7.77Z"/></g><g id="Сгруппировать_2" data-name="Сгруппировать 2"><path id="Контур_5" data-name="Контур 5" class="cls-2" d="M59.36,31.16,59,30.08H56.78l-.36,1.08H54.54l2.66-7.28h1.38l2.66,7.28Zm-1.43-4.51-.65,2h1.27Z"/><path id="Контур_6" data-name="Контур 6" class="cls-2" d="M71.72,29a2.45,2.45,0,0,1-.15.89,1.91,1.91,0,0,1-.46.67,2.19,2.19,0,0,1-.72.43,2.72,2.72,0,0,1-.94.15H66.28V23.88h3a3.15,3.15,0,0,1,1,.15,2,2,0,0,1,.73.4,1.9,1.9,0,0,1,.47.65,2.17,2.17,0,0,1,.16.84,1.94,1.94,0,0,1-.18.85,2,2,0,0,1-.62.65,2,2,0,0,1,.7.68A1.82,1.82,0,0,1,71.72,29Zm-1.88-2.94a.57.57,0,0,0-.17-.43.71.71,0,0,0-.48-.15H68.07v1.16h1.12a.69.69,0,0,0,.48-.15.54.54,0,0,0,.17-.43Zm.1,2.83a.61.61,0,0,0-.18-.46.66.66,0,0,0-.48-.17H68.07v1.27h1.21a.68.68,0,0,0,.49-.18.6.6,0,0,0,.17-.46Z"/><path id="Контур_7" data-name="Контур 7" class="cls-2" d="M80.33,25.48v5.68H78.54V25.48H76.75v-1.6h5.37v1.6Z"/><path id="Контур_8" data-name="Контур 8" class="cls-2" d="M92.59,27.82c0,.24,0,.47,0,.7a3.73,3.73,0,0,1-.09.67,3,3,0,0,1-.22.64,2.39,2.39,0,0,1-.42.58,2.68,2.68,0,0,1-2,.82,2.76,2.76,0,0,1-2-.82,2.14,2.14,0,0,1-.42-.61,2.77,2.77,0,0,1-.22-.65,4.91,4.91,0,0,1-.08-.67c0-.23,0-.45,0-.68v-.53c0-.36,0-.66,0-.93a4.27,4.27,0,0,1,.12-.7,2.11,2.11,0,0,1,.22-.54,2.28,2.28,0,0,1,.36-.46,2.94,2.94,0,0,1,4.07,0,2.38,2.38,0,0,1,.57.92,4.47,4.47,0,0,1,.17,1.32Zm-1.78-.61a5.46,5.46,0,0,0-.07-.9,1.34,1.34,0,0,0-.2-.58,1,1,0,0,0-1.39-.06l-.05.06a1.2,1.2,0,0,0-.21.58,4.54,4.54,0,0,0-.06.9v.51a6,6,0,0,0,.06,1,1.06,1.06,0,0,0,.21.54.87.87,0,0,0,.72.33.93.93,0,0,0,.4-.09.73.73,0,0,0,.31-.24,1.06,1.06,0,0,0,.21-.54,6,6,0,0,0,.06-1Z"/><path id="Контур_9" data-name="Контур 9" class="cls-2" d="M103.17,31.16V27.67l-1,1.8H101l-1-1.8v3.49H98.15V23.88h1.76l1.64,3.21,1.64-3.21H105v7.28Z"/><path id="Контур_10" data-name="Контур 10" class="cls-2" d="M114.83,31.16l-.34-1.08h-2.25l-.36,1.08H110l2.65-7.28h1.39l2.65,7.28Zm-1.43-4.51-.66,2H114Z"/><path id="Контур_11" data-name="Контур 11" class="cls-2" d="M124.28,25.48v5.68H122.5V25.48h-1.8v-1.6h5.38v1.6Z"/><path id="Контур_12" data-name="Контур 12" class="cls-2" d="M135.36,31.16v-4l-2.35,4h-1.57V23.88h1.78v4l2.34-4h1.58v7.28Z"/><path id="Контур_13" data-name="Контур 13" class="cls-2" d="M142.93,31.16V23.88h1.78v3.45l2-3.44h2.06l-2.15,3.38,2.39,3.9h-2.12l-2.15-3.82v3.82Z"/><path id="Контур_14" data-name="Контур 14" class="cls-2" d="M158,31.16l-.34-1.08h-2.25l-.36,1.08h-1.87l2.65-7.28h1.39l2.65,7.28Zm-1.43-4.51-.65,2h1.27Z"/></g><g id="Сгруппировать_3" data-name="Сгруппировать 3"><path id="Контур_15" data-name="Контур 15" class="cls-1" d="M112.46,7.84v13.6h3.24V10.82h3.24V21.44h3.24V7.84Z"/><path id="Контур_16" data-name="Контур 16" class="cls-1" d="M65.55,10.82h2.92V21.44h3.24V10.82h2.92v-3H65.56Z"/><path id="Контур_17" data-name="Контур 17" class="cls-1" d="M106.89,7.84h0L103.13,15V7.84H99.89v13.6h3l3.76-7.18v7.18h3.24V7.84Z"/><path id="Контур_18" data-name="Контур 18" class="cls-1" d="M104,7.84v3.49l1.82-3.49Z"/><path id="Контур_19" data-name="Контур 19" class="cls-1" d="M130,7.84h-5.18v13.6H128V16.58H130a3.87,3.87,0,0,0,3.89-3.88h0v-1A3.89,3.89,0,0,0,130,7.84Zm.65,5.76H128V10.82h2.59Z"/><path id="Контур_20" data-name="Контур 20" class="cls-1" d="M141.29,7.84H140a4.21,4.21,0,0,0-4.21,4.21h0v5.18A4.21,4.21,0,0,0,140,21.44h1.3a4.21,4.21,0,0,0,4.21-4.21h0V12.05A4.2,4.2,0,0,0,141.29,7.84Zm1,10.62H139V10.82h3.24Z"/><path id="Контур_21" data-name="Контур 21" class="cls-1" d="M81.75,7.84H76.57v13.6h3.24V16.58h1.94a3.89,3.89,0,0,0,3.89-3.88h0v-1A3.89,3.89,0,0,0,81.75,7.84Zm.65,5.76H79.81V10.82H82.4Z"/><path id="Контур_22" data-name="Контур 22" class="cls-1" d="M93.09,7.84h-1.3a4.21,4.21,0,0,0-4.21,4.21h0v5.18a4.21,4.21,0,0,0,4.21,4.21h1.3a4.2,4.2,0,0,0,4.21-4.21h0V12.05a4.2,4.2,0,0,0-4.21-4.21Zm1,10.62H90.82V10.82h3.24Z"/><path id="Контур_23" data-name="Контур 23" class="cls-1" d="M60,7.84H58.75a4.2,4.2,0,0,0-4.21,4.21h0v5.18a4.2,4.2,0,0,0,4.21,4.21H60a4.21,4.21,0,0,0,4.22-4.21h0V15.87H61v2.59H57.78V10.82H61v2.59h3.24V12.05A4.22,4.22,0,0,0,60,7.84Z"/><path id="Контур_24" data-name="Контур 24" class="cls-1" d="M157,7.84h0l-3,5.42-3-5.42h-2.86v13.6h3.24V14.52l1.71,3h1.89l1.71-3v6.92h3.24V7.84Z"/></g></svg>