<svg id="Слой_5" data-name="Слой 5" xmlns="http://www.w3.org/2000/svg" viewBox="0 0 16 16"><defs><style>.cls-1{fill:#707070;}</style></defs><g id="print"><path id="Контур_82" data-name="Контур 82" class="cls-1" d="M13,4.53h-.38V3.05a2.06,2.06,0,0,0-2.05-2h-5A2.05,2.05,0,0,0,3.43,3.05V4.53H3.05A2.05,2.05,0,0,0,1,6.58V9.86a2.05,2.05,0,0,0,2.05,2.05h.38v1.86A1.23,1.23,0,0,0,4.66,15h6.68a1.24,1.24,0,0,0,1.23-1.23V11.91H13A2.05,2.05,0,0,0,15,9.86V6.58A2.05,2.05,0,0,0,13,4.53ZM4.25,3.05A1.23,1.23,0,0,1,5.48,1.82h5a1.23,1.23,0,0,1,1.23,1.23V4.53H4.25Zm7.49,10.72a.41.41,0,0,1-.41.41H4.66a.41.41,0,0,1-.41-.41v-4h7.49Zm2.44-3.91A1.23,1.23,0,0,1,13,11.09h-.39V9.72h.25a.41.41,0,0,0,.41-.41.41.41,0,0,0-.41-.41H3.19a.41.41,0,0,0-.41.41.41.41,0,0,0,.41.41h.24v1.37H3.05A1.23,1.23,0,0,1,1.82,9.86V6.58A1.23,1.23,0,0,1,3.05,5.35H13a1.23,1.23,0,0,1,1.23,1.23Z"/><path id="Контур_83" data-name="Контур 83" class="cls-1" d="M9.09,10.65H6.91a.41.41,0,0,0-.41.41.41.41,0,0,0,.41.41H9.09a.41.41,0,0,0,.41-.41A.41.41,0,0,0,9.09,10.65Z"/><path id="Контур_84" data-name="Контур 84" class="cls-1" d="M9.09,12.4H6.91a.41.41,0,0,0-.41.41.4.4,0,0,0,.4.41H9.09a.41.41,0,1,0,0-.82Z"/><path id="Контур_85" data-name="Контур 85" class="cls-1" d="M4.5,6.28H3.19a.41.41,0,0,0-.41.41.41.41,0,0,0,.41.41H4.5a.41.41,0,0,0,.41-.41A.41.41,0,0,0,4.5,6.28Z"/></g></svg>